<?xml version="1.0" standalone="no"?>
<!DOCTYPE svg PUBLIC "-//W3C//DTD SVG 20010904//EN"
 "http://www.w3.org/TR/2001/REC-SVG-20010904/DTD/svg10.dtd">
<svg version="1.0" xmlns="http://www.w3.org/2000/svg"
 width="4167.000000pt" height="4167.000000pt" viewBox="0 0 4167.000000 4167.000000"
 preserveAspectRatio="xMidYMid meet">
<metadata>
Created by potrace 1.11, written by Peter Selinger 2001-2013
</metadata>
<g transform="translate(0.000000,4167.000000) scale(0.100000,-0.100000)"
fill="#000000" stroke="none">
<path d="M20020 41049 c-4698 -191 -9120 -1977 -12635 -5104 -632 -562 -1321
-1261 -1871 -1900 -2712 -3149 -4379 -7014 -4799 -11125 -81 -797 -111 -1477
-102 -2305 7 -621 21 -931 68 -1490 330 -3970 1830 -7747 4321 -10877 699
-878 1479 -1708 2303 -2448 3402 -3058 7688 -4862 12230 -5150 802 -51 1735
-52 2525 -5 4439 269 8612 1964 11985 4869 639 550 1338 1239 1900 1871 3023
3399 4801 7661 5080 12180 47 761 49 1723 5 2465 -311 5258 -2625 10130 -6510
13706 -3428 3155 -7826 5019 -12490 5294 -510 30 -1509 39 -2010 19z m1760
-878 c325 -19 628 -41 900 -67 2813 -265 5534 -1146 7969 -2582 2827 -1665
5208 -4046 6873 -6873 1509 -2559 2402 -5424 2618 -8392 39 -540 45 -732 45
-1422 0 -667 -6 -853 -40 -1355 -150 -2152 -652 -4242 -1497 -6230 -317 -744
-767 -1629 -1186 -2327 -1936 -3231 -4758 -5830 -8117 -7474 -2144 -1049
-4419 -1683 -6800 -1893 -585 -52 -1029 -70 -1710 -70 -581 0 -827 7 -1305 39
-4446 298 -8614 2105 -11889 5154 -201 186 -776 761 -962 962 -3049 3275
-4856 7443 -5154 11889 -32 481 -39 723 -39 1305 0 581 8 834 40 1315 304
4565 2223 8871 5421 12163 1397 1437 2956 2617 4718 3572 249 134 904 459
1170 580 2117 957 4330 1517 6640 1679 181 13 314 20 765 40 157 7 1364 -3
1540 -13z"/>
<path d="M19486 32435 c-470 -67 -854 -341 -1069 -763 -114 -223 -160 -404
-160 -637 -1 -233 41 -419 138 -622 120 -252 260 -417 507 -601 53 -40 106
-88 118 -107 19 -31 310 -890 310 -915 0 -5 -17 -12 -37 -16 -1294 -222 -2495
-731 -3608 -1529 -82 -59 -155 -109 -161 -112 -6 -2 -84 112 -174 254 -90 142
-216 335 -279 428 -63 94 -144 213 -179 265 -118 175 -200 370 -238 566 -21
105 -23 308 -7 519 54 702 -269 1292 -916 1675 -225 133 -458 225 -691 272
-98 19 -145 23 -325 23 -179 0 -227 -4 -323 -23 -435 -88 -879 -357 -1180
-717 -304 -362 -442 -798 -411 -1294 9 -150 12 -172 40 -320 109 -554 443
-1029 915 -1299 294 -168 618 -252 972 -252 173 0 280 11 457 46 76 15 145 24
168 21 30 -4 107 -50 306 -183 470 -312 1051 -707 1051 -713 0 -3 -61 -71
-136 -151 -898 -957 -1542 -2047 -1948 -3300 -65 -199 -176 -589 -176 -616 0
-8 -4 -14 -10 -14 -29 0 -894 370 -1025 438 -77 40 -189 145 -217 202 -9 19
-39 83 -67 141 -230 487 -692 845 -1236 959 -132 28 -378 37 -522 20 -491 -57
-952 -336 -1220 -740 -254 -382 -357 -872 -273 -1304 30 -154 71 -270 150
-431 139 -278 341 -508 600 -682 284 -190 583 -282 917 -283 458 -1 880 167
1223 485 63 59 129 114 145 123 27 14 106 16 689 20 l659 4 -7 -83 c-23 -308
-29 -458 -29 -804 -1 -398 9 -609 44 -955 128 -1273 526 -2454 1211 -3594 66
-110 147 -240 180 -289 33 -49 56 -93 51 -97 -9 -8 -956 -293 -1418 -426 -322
-92 -403 -106 -507 -85 -34 7 -141 55 -269 120 -321 161 -564 243 -854 287
-162 24 -466 25 -625 0 -292 -44 -573 -141 -840 -291 -735 -412 -1150 -1029
-1231 -1828 -17 -174 -7 -548 20 -702 69 -404 223 -757 474 -1090 72 -95 294
-320 392 -397 191 -150 465 -303 685 -382 445 -160 956 -185 1411 -71 333 84
674 260 945 489 462 389 779 992 844 1606 20 193 30 252 49 295 21 47 197 208
1111 1013 278 245 520 459 538 475 l32 31 213 -210 c116 -116 257 -250 312
-300 1095 -981 2297 -1629 3664 -1975 129 -33 237 -62 240 -65 9 -8 -139 -657
-200 -874 -62 -223 -105 -286 -311 -457 -236 -196 -409 -487 -469 -788 -21
-106 -18 -408 4 -513 74 -336 278 -664 532 -854 98 -74 290 -169 407 -202 328
-94 698 -66 993 74 290 138 524 384 656 689 156 362 142 796 -37 1152 -75 150
-136 235 -286 397 -50 54 -81 97 -88 121 -14 53 -140 1047 -140 1107 0 4 21 4
48 0 26 -3 182 -11 347 -16 718 -26 1461 42 2153 196 718 160 1455 434 2130
793 l113 59 349 -696 c193 -383 388 -771 435 -862 110 -216 126 -261 132 -385
4 -86 1 -113 -21 -195 -126 -457 -124 -807 5 -1194 343 -1033 1516 -1577 2513
-1166 440 182 777 499 992 933 337 680 248 1498 -226 2082 -221 271 -527 479
-849 574 -54 16 -183 44 -287 61 -294 50 -497 125 -704 260 -128 84 -184 129
-392 307 -97 83 -326 276 -510 429 -355 296 -510 432 -506 444 2 4 145 139
318 301 374 348 917 888 1054 1049 360 422 567 738 1290 1972 l57 97 97 -36
c53 -19 212 -73 352 -120 140 -47 277 -97 304 -111 54 -29 111 -95 138 -157 9
-22 35 -83 57 -137 273 -654 995 -1040 1695 -907 594 112 1114 611 1241 1189
22 103 31 400 15 527 -43 349 -183 650 -415 892 -241 251 -533 409 -860 467
-131 22 -376 23 -500 1 -336 -60 -617 -206 -875 -452 -54 -52 -111 -100 -127
-106 -18 -7 -146 -13 -350 -17 l-323 -5 0 28 c0 36 36 317 105 830 54 398 92
729 117 1005 17 195 17 973 0 1175 -24 274 -52 536 -107 990 -73 609 -89 754
-82 762 7 6 823 51 1401 77 329 15 341 15 382 -4 28 -12 92 -67 186 -162 164
-164 262 -245 438 -363 286 -191 611 -320 960 -382 178 -31 503 -42 682 -24
862 91 1616 610 2002 1380 280 558 349 1208 193 1813 -113 437 -331 812 -667
1149 -388 389 -846 626 -1385 716 -171 28 -594 26 -765 -5 -396 -71 -756 -212
-1066 -418 -538 -356 -900 -932 -1049 -1669 -34 -168 -59 -244 -93 -283 -20
-23 -109 -71 -332 -178 -399 -192 -1288 -612 -1309 -619 -14 -4 -24 11 -51 72
-18 43 -86 186 -151 318 -193 391 -356 675 -594 1035 -438 661 -926 1211
-1559 1758 l-38 33 203 307 c111 169 247 379 302 467 181 291 201 319 292 410
50 50 116 105 147 124 108 63 153 77 468 151 658 154 1193 689 1395 1395 263
916 -191 1947 -1044 2374 -555 278 -1217 282 -1780 11 -222 -108 -390 -230
-567 -411 -370 -381 -574 -892 -574 -1434 0 -439 123 -815 391 -1197 120 -170
144 -218 142 -288 -1 -30 -22 -161 -48 -290 -43 -217 -203 -951 -208 -956 -1
-2 -36 18 -77 43 -1367 837 -2882 1273 -4420 1273 l-250 0 0 43 c0 23 7 116
15 207 8 91 15 212 15 270 0 211 31 342 106 456 20 30 89 111 154 180 250 265
358 492 391 823 13 140 -1 328 -36 487 -121 533 -557 964 -1095 1080 -104 22
-377 27 -504 9z m2659 -5625 c269 -30 531 -120 753 -258 114 -71 191 -131 296
-232 271 -261 451 -591 527 -966 27 -136 37 -427 20 -572 -62 -505 -331 -959
-742 -1255 -117 -84 -340 -196 -480 -241 -310 -101 -672 -114 -981 -35 -516
130 -951 485 -1183 963 -317 654 -220 1401 255 1969 297 354 709 572 1195 630
66 8 255 6 340 -3z m-5367 -5761 c273 -52 526 -182 731 -375 182 -171 308
-365 390 -597 58 -167 75 -271 75 -477 0 -153 -4 -203 -22 -287 -64 -298 -187
-534 -387 -741 -205 -214 -424 -343 -700 -412 -409 -104 -824 -31 -1185 208
-46 31 -134 105 -195 163 -210 204 -335 416 -409 696 -71 268 -58 587 35 850
77 216 191 395 359 563 169 170 339 278 556 353 246 86 498 104 752 56z m7387
-559 c994 -71 1788 -752 2005 -1721 50 -224 65 -536 35 -766 -84 -646 -447
-1223 -995 -1583 -265 -174 -601 -293 -930 -331 -131 -15 -429 -6 -560 16
-490 83 -909 304 -1245 657 -318 333 -505 724 -587 1223 -20 121 -16 513 5
640 82 476 282 876 601 1204 420 430 884 637 1506 670 14 0 88 -4 165 -9z"/>
</g>
</svg>
